<svg version="1.0" xmlns="http://www.w3.org/2000/svg" xmlns:xlink="http://www.w3.org/1999/xlink" x="0px" y="0px" width="200px"
	 height="200px" viewBox="0 0 200 200" enable-background="new 0 0 200 200" xml:space="preserve">
<g id="Layer_1">
</g>
<g id="Layer_2">
	<g>
		<path fill="#10327A" d="M43.655,74.96l4.779,110.733C63.492,194.773,81.135,200,100,200c38.821,0,72.473-22.121,89.043-54.444
			L43.655,74.96z"/>
		<circle fill="none" cx="100" cy="100" r="100"/>
		<path fill="#0053C8" d="M159.256,93.354l-132.475-20.9l142.627,99.528c13.605-13.122,23.501-30.062,27.958-49.099L159.256,93.354z
			"/>
		<circle fill="none" cx="100" cy="100" r="100"/>
		<path fill="#5488CC" d="M22.777,36.463l16.32,46.273l106.688,4.976l24.982-58.366C152.667,11.217,127.645,0,100,0
			C68.901,0,41.118,14.197,22.777,36.463z"/>
		<path fill="#6BB4E9" d="M83.599,198.653L38.475,68.739l-28.592,74.66C23.767,172.175,51.031,193.279,83.599,198.653z"/>
		<path fill="#424D93" d="M45.487,82.062L0,99.97c0,0.01,0,0.02,0,0.03c0,25.567,9.6,48.889,25.385,66.569L45.487,82.062z"/>
		<path fill="#80EFF6" d="M61.48,7.693C25.375,22.778,0,58.424,0,100c0,2.725,0.113,5.423,0.327,8.094l44.681-23.802L61.48,7.693z"
			/>
		<path fill="#2B184C" d="M100,0C79.684,0,60.786,6.065,45.008,16.474v67.818l58.75-84.215C102.51,0.031,101.259,0,100,0z"/>
		<path fill="#0045A2" d="M188.595,146.407C195.875,132.538,200,116.751,200,100c0-13.938-2.854-27.209-8.007-39.263L129.3,87.712
			L188.595,146.407z"/>
		<path fill="#21DEF1" d="M192.381,61.661c-11.054-26.605-33.263-47.405-60.793-56.564l4.775,79.577L192.381,61.661z"/>
		<polygon fill="#FFFFFF" points="58.662,42.107 58.662,155.26 152.021,98.684 		"/>
	</g>
</g>
</svg>
